<?xml version="1.0" encoding="utf-8"?>
<?xml-stylesheet type="text/xsl" href="rss1.xsl"?>
<rss version="2.0" xmlns:atom="http://www.w3.org/2005/Atom" xmlns:content="http://purl.org/rss/1.0/modules/content/" xmlns:dc="http://purl.org/dc/elements/1.1/" xmlns:media="http://search.yahoo.com/mrss/">
<channel>
 <title>Getty</title>
 <link>http://www.gettyimg.com/</link>
 <atom:link href="http://www.gettyimg.com/" rel="self" type="application/rss+xml" />

 
                <item>
                <title><![CDATA[【UPSCALED】Master KG - Jerusalema (feat. Nomcebo Zikode) [4K AI Upscale | HEVC 10-bit | PCM]]]></title>
                <link><![CDATA[https://sharemania.us/threads/master-kg-jerusalema-feat-nomcebo-zikode-4k-ai-upscale-hevc-10-bit-pcm.228696/]]></link>
                <description><![CDATA[<article>
<blockquote class="messageText SelectQuoteContainer ugc baseHtml">
<b><img src="https://images2.imgbox.com/e9/0c/r9Ioeqcw_o.jpg" class="bbCodeImage LbImage" alt="[​IMG]" data-url="https://images2.imgbox.com/e9/0c/r9Ioeqcw_o.jpg" style=""> <br>
<br>
Genre: <span style="color: #0059b3">Pop</span> <br>
Style: <span style="color: #0059b3">Dance-pop</span> <br>
Year: <span style="color: #0059b3">2020</span><br>
Video Source: <span style="color: #0059b3">Vimeo, 1080p</span><br>
Audio Source: <span style="color: #0059b3">Qobuz</span></b><br>
<br>
"<b>Jerusalema</b>" is a song by South African DJ and record producer, Master KG featuring South African vocalist Nomcebo. The upbeat gospel-influenced house song was initially released on 29 November 2019 after it garnered positive response online, with a music video following on 21 December. The music video of the song has generated half a billion views on YouTube. It was later included on Master KG's second album of the same title, released in January 2020. A single edit was released on streaming services on 10 July 2020, after it went viral during mid-2020, garnering international reaction due to the #JerusalemaChallenge. A remix featuring Nigerian singer Burna Boy was released on 19 June 2020. It reached number one in Belgium, Netherlands, Romania and Switzerland, while peaking in the top ten of multiple other European countries. A second remix featuring Venezuelan singer Micro TDH and Colombian singer Greeicy was released on 17 September 2020.<br>
At the third ceremony of the African Entertainment Awards USA "Jerusalema" won the Song of the Year award.<br>
<br>
The song was recorded on 11 August 2019, and after being posted on social media, it received positive responses from fans. Master KG said he called "his sister Nomcebo to come so we can finish the song". The finished version was then uploaded to YouTube in October and officially released on 29 November. It surpassed one million views in its first week. The official music video was released on 21 December 2019. After it went viral, the song was released to streaming services on 10 July by Elektra France and Warner France. Upon its release, some deemed it a "tavern" song. Master KG stated: "Some call it tavern music, and I said, 'It's okay, wait and let me show what tavern music can do to the world'". During late 2019, it had become a favourite in South African clubs.<br>
<br>
Although it has "religious-leaning" lyrics, "Jerusalema" is an upbeat disco-house track containing "deep", "spiritual", gospel lyrics. Lyrically, as noted by OkayAfrica's Rufaro Samanga, "it speaks about Jerusalem being the home of many religious believers". The remix sees Burna Boy incorporating his signature Afrobeats style, singing part of his verse in Zulu and part in Yorub while emphasizing the unity of African artists.<br>
<br>
An accompanying dance challenge, attributed to a group of Angolan friends performing the choreography in a candid video, helped the song go viral online. The #JerusalemaChallenge, which has been compared to the Macarena, spawned dance videos from across many countries, including the Netherlands, Portugal, Sweden, Italy, Romania, Spain, France, Jamaica, Canada, the United States, Sri Lanka and Israel, in particular in Jerusalem itself. The challenge faced a major drawback when Warner Brothers began to ask for copyright compensation for using the song.<br>
<br>
The song's official music video was released onto YouTube on 21 December 2019. By 27 August the video had passed 100 million views, half a year later it passed already 300 million views, a rare feat for South African artists.<br>
<br>
<b>Release Info</b><br>
The video track is upscaled from 1080p to 4K with Topaz Video AI and encoded to HEVC 10-bit.<br>
The PCM track is lossless, downloaded from Qobuz, edited and synced with Adobe Audition.<br>
<br>
<div class="ToggleTriggerAnchor bbCodeSpoilerContainer">
<button type="button" class="button bbCodeSpoilerButton ToggleTrigger Tooltip JsOnly" data-target="> .SpoilerTarget"><span>Spoiler: <span class="SpoilerTitle">Media Info</span></span></button>
<div class="SpoilerTarget bbCodeSpoilerText">
<div class="bbCodeBlock bbCodeCode">
<div class="type">Code:</div>
<pre>General
Unique ID                      : 160163440234593367028282095528709146977 (0x787E5B4725FB2E0B6E9584CDFCBF4961)
Complete name                  : Master KG - Jerusalema (feat. Nomcebo Zikode).mkv
Format                         : Matroska
Format version                 : Version 4 / Version 2
File size                      : 464 MiB
Duration                       : 4 min 14 s
Overall bit rate               : 15.3 Mb/s
Frame rate                     : 50.000 FPS
Encoded date                   : 2023-09-18 19:19:51 UTC
Writing application            : mkvmerge v76.0 ('Celebration') 64-bit
Writing library                : libebml v1.4.4 + libmatroska v1.7.1

Video
ID                             : 1
Format                         : HEVC
Format/Info                    : High Efficiency Video Coding
Format profile                 : Main 10@L5.1@Main
Codec ID                       : V_MPEGH/ISO/HEVC
Duration                       : 4 min 14 s
Bit rate                       : 13.6 Mb/s
Width                          : 3 840 pixels
Height                         : 1 636 pixels
Display aspect ratio           : 2.35:1
Frame rate mode                : Constant
Frame rate                     : 50.000 FPS
Color space                    : YUV
Chroma subsampling             : 4:2:0
Bit depth                      : 10 bits
Bits/(Pixel*Frame)             : 0.043
Stream size                    : 411 MiB (89%)
Writing library                : x265 3.5+1-f0c1022b6:[Windows][GCC 10.2.0][64 bit] 10bit
Encoding settings              : cpuid=1111039 / frame-threads=5 / numa-pools=32 / wpp / no-pmode / no-pme / no-psnr / no-ssim / log-level=2 / input-csp=1 / input-res=3840x1636 / interlace=0 / total-frames=0 / level-idc=0 / high-tier=1 / uhd-bd=0 / ref=4 / no-allow-non-conformance / no-repeat-headers / annexb / no-aud / no-eob / no-eos / no-hrd / info / hash=0 / no-temporal-layers / open-gop / min-keyint=50 / keyint=500 / gop-lookahead=0 / bframes=4 / b-adapt=2 / b-pyramid / bframe-bias=0 / rc-lookahead=25 / lookahead-slices=4 / scenecut=40 / no-hist-scenecut / radl=0 / no-splice / no-intra-refresh / ctu=64 / min-cu-size=8 / rect / no-amp / max-tu-size=32 / tu-inter-depth=1 / tu-intra-depth=1 / limit-tu=0 / rdoq-level=2 / dynamic-rd=0.00 / no-ssim-rd / signhide / no-tskip / nr-intra=0 / nr-inter=0 / no-constrained-intra / strong-intra-smoothing / max-merge=3 / limit-refs=3 / limit-modes / me=3 / subme=3 / merange=57 / temporal-mvp / no-frame-dup / no-hme / weightp / no-weightb / no-analyze-src-pics / deblock=0:0 / sao / no-sao-non-deblock / rd=4 / selective-sao=4 / no-early-skip / rskip / no-fast-intra / no-tskip-fast / no-cu-lossless / no-b-intra / no-splitrd-skip / rdpenalty=0 / psy-rd=2.00 / psy-rdoq=1.00 / no-rd-refine / no-lossless / cbqpoffs=0 / crqpoffs=0 / rc=crf / crf=20.0 / qcomp=0.60 / qpstep=4 / stats-write=0 / stats-read=0 / ipratio=1.40 / pbratio=1.30 / aq-mode=2 / aq-strength=1.00 / cutree / zone-count=0 / no-strict-cbr / qg-size=32 / no-rc-grain / qpmax=69 / qpmin=0 / no-const-vbv / sar=1 / overscan=0 / videoformat=5 / range=0 / colorprim=1 / transfer=1 / colormatrix=1 / chromaloc=0 / display-window=0 / cll=0,0 / min-luma=0 / max-luma=1023 / log2-max-poc-lsb=8 / vui-timing-info / vui-hrd-info / slices=1 / no-opt-qp-pps / no-opt-ref-list-length-pps / no-multi-pass-opt-rps / scenecut-bias=0.05 / no-opt-cu-delta-qp / no-aq-motion / no-sbrc / no-hdr10 / no-hdr10-opt / no-dhdr10-opt / no-idr-recovery-sei / analysis-reuse-level=0 / analysis-save-reuse-level=0 / analysis-load-reuse-level=0 / scale-factor=0 / refine-intra=0 / refine-inter=0 / refine-mv=1 / refine-ctu-distortion=0 / no-limit-sao / ctu-info=0 / no-lowpass-dct / refine-analysis-type=0 / copy-pic=1 / max-ausize-factor=1.0 / no-dynamic-refine / no-single-sei / no-hevc-aq / no-svt / no-field / qp-adaptation-range=1.00 / scenecut-aware-qp=0conformance-window-offsets / right=0 / bottom=0 / decoder-max-rate=0 / no-vbv-live-multi-pass / no-mcstf
Default                        : Yes
Forced                         : No
Color range                    : Limited
Color primaries                : BT.709
Transfer characteristics       : BT.709
Matrix coefficients            : BT.709

Audio #1
ID                             : 2
Format                         : PCM
Format settings                : Little / Signed
Codec ID                       : A_PCM/INT/LIT
Duration                       : 4 min 14 s
Bit rate mode                  : Constant
Bit rate                       : 1 411.2 kb/s
Channel(s)                     : 2 channels
Sampling rate                  : 44.1 kHz
Frame rate                     : 25.003 FPS (1764 SPF)
Bit depth                      : 16 bits
Delay relative to video        : -14 ms
Stream size                    : 42.8 MiB (9%)
Language                       : English
Default                        : Yes
Forced                         : No

Audio #2
ID                             : 3
Format                         : AAC LC
Format/Info                    : Advanced Audio Codec Low Complexity
Codec ID                       : A_AAC-2
Duration                       : 4 min 14 s
Bit rate                       : 329 kb/s
Channel(s)                     : 2 channels
Channel layout                 : L R
Sampling rate                  : 48.0 kHz
Frame rate                     : 46.875 FPS (1024 SPF)
Compression mode               : Lossy
Delay relative to video        : -14 ms
Stream size                    : 9.96 MiB (2%)
Language                       : English
Default                        : No
Forced                         : No
</pre>
</div></div>
</div><br>
<div class="bbCodeBlock bbCodeVfcHH HiddenContent">
<div class="attribution type">Hidden Content:</div>
<blockquote>You must reply before you can see the hidden data contained here.</blockquote>
</div>
<div class="messageTextEndMarker">&nbsp;</div>
</blockquote>
</article>]]></description>
                <author><![CDATA[ADHDerby]]></author>
                </item>

                </channel></rss>